<svg xmlns="http://www.w3.org/2000/svg" version="1.1" xmlns:xlink="http://www.w3.org/1999/xlink" xmlns:svgjs="http://svgjs.dev/svgjs" width="1500" height="1500" viewBox="0 0 1500 1500"><rect width="1500" height="1500" fill="#293040"></rect><g transform="matrix(0.6666666666666666,0,0,0.6666666666666666,249.39393939393938,593.8809523623781)"><svg viewBox="0 0 396 123" data-background-color="#293040" preserveAspectRatio="xMidYMid meet" height="465" width="1500" xmlns="http://www.w3.org/2000/svg" xmlns:xlink="http://www.w3.org/1999/xlink"><g id="tight-bounds" transform="matrix(1,0,0,1,0.2400000000000091,0.4440092239596538)"><svg viewBox="0 0 395.52 122.11198155208069" height="122.11198155208069" width="395.52"><g><svg viewBox="0 0 667.6870341083659 206.14023764058518" height="122.11198155208069" width="395.52"><g><rect width="7.7140198628940695" height="178.99297045492202" x="415.7137692745918" y="13.573633592831584" fill="#44e900" opacity="1" stroke-width="0" stroke="transparent" fill-opacity="1" class="rect-yte-0" data-fill-palette-color="primary" rx="1%" id="yte-0" data-palette-color="#44e900"></rect></g><g transform="matrix(1,0,0,1,0,28.489714464075078)"><svg viewBox="0 0 395.52 149.16080871243503" height="149.16080871243503" width="395.52"><g id="textblocktransform"><svg viewBox="0 0 395.52 149.16080871243503" height="149.16080871243503" width="395.52" id="textblock"><g><svg viewBox="0 0 395.52 85.53927241478085" height="85.53927241478085" width="395.52"><g transform="matrix(1,0,0,1,0,0)"><svg width="395.52" viewBox="1.3 -37.25 174.54 37.75" height="85.53927241478085" data-palette-color="#44e900"><path d="M1.3-1.3L1.3-1.3Q1.7-3.2 1.98-4.48 2.25-5.75 2.45-7.25L2.45-7.25 4.95-7.25 5.75-3.35Q6.4-2.8 7.3-2.5 8.2-2.2 9.1-2.2L9.1-2.2Q10.35-2.2 11.33-2.8 12.3-3.4 12.3-4.65L12.3-4.65Q12.3-5.7 11.53-6.38 10.75-7.05 9.55-7.58 8.35-8.1 7-8.63 5.65-9.15 4.45-9.95 3.25-10.75 2.48-11.95 1.7-13.15 1.7-15L1.7-15Q1.7-17.55 2.95-19.03 4.2-20.5 6.23-21.15 8.25-21.8 10.5-21.8L10.5-21.8Q12.25-21.8 14.15-21.4 16.05-21 17.6-20.25L17.6-20.25Q17.2-18.5 16.88-17.15 16.55-15.8 16.3-14.5L16.3-14.5 13.7-14.55 13.05-17.95Q12.15-19.15 10.1-19.15L10.1-19.15Q9-19.15 8.08-18.65 7.15-18.15 7.15-17L7.15-17Q7.15-15.9 7.95-15.23 8.75-14.55 10.03-14.05 11.3-13.55 12.75-12.98 14.2-12.4 15.48-11.55 16.75-10.7 17.55-9.38 18.35-8.05 18.35-6L18.35-6Q18.35-3.6 17.05-2.18 15.75-0.75 13.6-0.13 11.45 0.5 8.95 0.5L8.95 0.5Q7.05 0.5 5.1 0.1 3.15-0.3 1.3-1.3ZM39.55-21.75L39.55-21.75Q42.4-21.75 44.22-19.6 46.05-17.45 46.25-14.05L46.25-14.05Q46.3-13.15 46.25-11.23 46.2-9.3 46.17-7.05 46.15-4.8 46.15-2.9L46.15-2.9 49.9-1.85 49.1 0Q47.8-0.1 46.15-0.13 44.5-0.15 42.9-0.15L42.9-0.15Q40.95-0.15 39.4-0.1 37.85-0.05 36.55 0L36.55 0 35.9-1.85 39.55-2.9Q39.6-4.6 39.65-5.78 39.7-6.95 39.72-8.13 39.75-9.3 39.7-10.9L39.7-10.9Q39.65-13.95 38.6-15.35 37.55-16.75 35.5-17.2L35.5-17.2Q33.3-15.75 32.3-13.65 31.3-11.55 31.35-9.65L31.35-9.65 29.5-11.85Q29.85-14.7 31.22-16.95 32.6-19.2 34.75-20.48 36.9-21.75 39.55-21.75ZM31.4-22L31.4-22Q31.4-20.35 31.4-19.33 31.4-18.3 31.37-17.28 31.35-16.25 31.25-14.55L31.25-14.55 31.45-2.9 35.1-1.85 34.45 0Q32.75-0.1 31.25-0.13 29.75-0.15 27.95-0.15L27.95-0.15Q26-0.15 24.57-0.1 23.15-0.05 21.7 0L21.7 0 20.9-1.85 24.65-2.9Q24.65-4.5 24.77-6.68 24.9-8.85 24.9-10.8L24.9-10.8Q24.9-12.25 24.87-13.23 24.85-14.2 24.75-15.28 24.65-16.35 24.45-18.1L24.45-18.1 20.55-19.05 19.95-20.95Q22.9-21.1 25.52-21.38 28.15-21.65 31.4-22ZM63.35-21.7L63.35-21.7Q67.05-21.7 69.52-20.15 72-18.6 73.22-16.1 74.45-13.6 74.45-10.7L74.45-10.7Q74.45-7.75 73.2-5.18 71.95-2.6 69.45-1.05 66.95 0.5 63.2 0.5L63.2 0.5Q59.45 0.5 56.9-1.07 54.35-2.65 53.05-5.25 51.75-7.85 51.75-10.8L51.75-10.8Q51.75-13.7 53.02-16.18 54.3-18.65 56.87-20.18 59.45-21.7 63.35-21.7ZM58.75-11.85L58.75-11.85Q58.75-9.35 59.32-7.1 59.9-4.85 61.05-3.45 62.2-2.05 63.8-2.05L63.8-2.05Q65.7-2.05 66.62-4.13 67.55-6.2 67.55-9.3L67.55-9.3Q67.55-11.8 66.97-14.03 66.4-16.25 65.27-17.68 64.15-19.1 62.5-19.1L62.5-19.1Q60.6-19.1 59.67-17.03 58.75-14.95 58.75-11.85ZM88.54-21.7L88.54-21.7Q92.24-21.7 94.72-20.15 97.19-18.6 98.42-16.1 99.64-13.6 99.64-10.7L99.64-10.7Q99.64-7.75 98.39-5.18 97.14-2.6 94.64-1.05 92.14 0.5 88.39 0.5L88.39 0.5Q84.64 0.5 82.09-1.07 79.54-2.65 78.24-5.25 76.94-7.85 76.94-10.8L76.94-10.8Q76.94-13.7 78.22-16.18 79.49-18.65 82.07-20.18 84.64-21.7 88.54-21.7ZM83.94-11.85L83.94-11.85Q83.94-9.35 84.52-7.1 85.09-4.85 86.24-3.45 87.39-2.05 88.99-2.05L88.99-2.05Q90.89-2.05 91.82-4.13 92.74-6.2 92.74-9.3L92.74-9.3Q92.74-11.8 92.17-14.03 91.59-16.25 90.47-17.68 89.34-19.1 87.69-19.1L87.69-19.1Q85.79-19.1 84.87-17.03 83.94-14.95 83.94-11.85ZM112.49-37.25L112.49-37.25Q112.49-36 112.49-33.25 112.49-30.5 112.47-27 112.44-23.5 112.42-19.88 112.39-16.25 112.39-13.2L112.39-13.2 112.64-2.9 116.04-1.85 115.29 0Q113.44-0.1 111.97-0.13 110.49-0.15 108.74-0.15L108.74-0.15Q106.74-0.15 105.12-0.13 103.49-0.1 101.84 0L101.84 0 100.99-1.85 105.29-2.9Q105.59-8.55 105.59-14.65L105.59-14.65Q105.59-20.25 105.49-25.08 105.39-29.9 105.09-33.65L105.09-33.65 101.09-34.3 100.64-36.35Q101.49-36.4 102.99-36.5 104.49-36.6 106.24-36.73 107.99-36.85 109.64-36.98 111.29-37.1 112.49-37.25ZM112.89-10.95L112.89-10.95Q114.19-12.25 115.24-13.23 116.29-14.2 117.29-15.35 118.29-16.5 119.44-18.15L119.44-18.15 115.29-19.2 115.89-21.05Q117.44-21 118.92-20.95 120.39-20.9 122.19-20.9L122.19-20.9Q125.44-20.9 128.04-21.05L128.04-21.05 128.74-19.2 124.59-18.2Q122.69-16.55 121.47-15.45 120.24-14.35 119.22-13.33 118.19-12.3 116.79-10.95L116.79-10.95 118.54-13.6Q120.09-11.05 121.12-9.35 122.14-7.65 123.19-6.2 124.24-4.75 125.74-2.9L125.74-2.9 129.59-1.85 129.09 0Q127.69-0.1 126.47-0.1 125.24-0.1 123.79-0.1L123.79-0.1Q122.39-0.1 121.17-0.1 119.94-0.1 118.74 0L118.74 0Q117.29-2.6 115.97-5.25 114.64-7.9 112.89-10.95ZM142.49-21.85L142.49-21.85Q144.99-21.85 147.11-20.75 149.24-19.65 150.51-17.43 151.79-15.2 151.79-11.85L151.79-11.85Q150.69-11.65 148.89-11.5 147.09-11.35 144.94-11.28 142.79-11.2 140.64-11.2L140.64-11.2Q139.04-11.2 137.89-11.25 136.74-11.3 136.34-11.35L136.34-11.35 136.34-13.75Q136.89-13.75 138.01-13.75 139.14-13.75 140.54-13.8 141.94-13.85 143.26-13.95 144.59-14.05 145.49-14.2L145.49-14.2Q145.44-15.25 144.91-16.32 144.39-17.4 143.34-18.15 142.29-18.9 140.64-18.9L140.64-18.9Q139.64-17.95 139.04-16.28 138.44-14.6 138.44-12.4L138.44-12.4Q138.44-7.9 140.31-5.78 142.19-3.65 144.94-3.65L144.94-3.65Q147.74-3.65 150.84-5.65L150.84-5.65 151.94-3.35Q149.79-1.4 147.34-0.55 144.89 0.3 142.49 0.3L142.49 0.3Q139.69 0.3 137.26-0.93 134.84-2.15 133.36-4.6 131.89-7.05 131.89-10.7L131.89-10.7Q131.89-14.4 133.41-16.88 134.94-19.35 137.36-20.6 139.79-21.85 142.49-21.85ZM164.24-21.7L164.24-21.7Q164.29-20.55 164.39-19 164.49-17.45 164.59-16.18 164.69-14.9 164.69-14.45L164.69-14.45 165.04-3.1 169.99-1.85 169.24 0Q168.39-0.05 166.99-0.08 165.59-0.1 164.09-0.13 162.59-0.15 161.39-0.15L161.39-0.15Q159.84-0.15 158.04-0.1 156.24-0.05 154.74 0L154.74 0 153.99-1.85 158.04-2.9Q158.04-5.15 158.04-6.93 158.04-8.7 158.04-10.8L158.04-10.8Q158.04-11.95 158.01-12.93 157.99-13.9 157.94-15.13 157.89-16.35 157.74-18.15L157.74-18.15 154.34-18.7 153.64-20.8Q154.79-20.85 156.71-20.95 158.64-21.05 160.69-21.25 162.74-21.45 164.24-21.7ZM170.94-21.8L170.94-21.8Q172.34-21.8 173.54-21.28 174.74-20.75 175.84-19.6L175.84-19.6Q175.54-18.1 175.29-17 175.04-15.9 174.71-14.83 174.39-13.75 173.94-12.2L173.94-12.2 171.14-12.2Q170.79-14.05 170.11-15.43 169.44-16.8 168.29-17.3L168.29-17.3Q167.04-16.5 165.91-14.33 164.79-12.15 164.79-8.55L164.79-8.55 162.84-11.45Q163.24-14.25 164.39-16.6 165.54-18.95 167.21-20.38 168.89-21.8 170.94-21.8Z" opacity="1" transform="matrix(1,0,0,1,0,0)" fill="#44e900" class="wordmark-text-0" data-fill-palette-color="primary" id="text-0"></path></svg></g></svg></g><g transform="matrix(1,0,0,1,163.310208,105.73304168937266)"><svg viewBox="0 0 232.209792 43.42776702306238" height="43.42776702306238" width="232.209792"><g transform="matrix(1,0,0,1,0,0)"><svg width="232.209792" viewBox="2.81 -35.64 193.71 36.230000000000004" height="43.42776702306238" data-palette-color="#e6d7ff"><path d="M27.1-4.76L28.25-1Q25.98-0.29 23.45 0.15 20.92 0.59 17.9 0.59L17.9 0.59Q10.42 0.59 6.62-3.88 2.81-8.35 2.81-17.04L2.81-17.04Q2.81-26.27 6.62-30.96 10.42-35.64 17.9-35.64L17.9-35.64Q20.73-35.64 22.99-35.16 25.24-34.67 27.34-33.89L27.34-33.89 26.07-30.27Q25.07-30.64 24.1-30.93 23.12-31.23 22.13-31.42 21.14-31.62 20.09-31.71 19.04-31.81 17.9-31.81L17.9-31.81Q15.19-31.81 13.23-30.85 11.28-29.88 10.01-28.04 8.74-26.2 8.13-23.55 7.52-20.9 7.52-17.53L7.52-17.53Q7.52-14.06 8.13-11.4 8.74-8.74 10.01-6.92 11.28-5.1 13.23-4.17 15.19-3.25 17.9-3.25L17.9-3.25Q20.39-3.25 22.63-3.66 24.88-4.08 27.1-4.76L27.1-4.76ZM55.34-0.44L55.34-0.44 51.29 0.46Q50.83-1 50.63-2.37L50.63-2.37Q50.53-3 50.39-4.96L50.39-4.96 49.88-4.96Q48.53-2.49 46.56-1.03L46.56-1.03Q44.38 0.59 41.97 0.59L41.97 0.59Q38.33 0.59 36.42-1.17L36.42-1.17Q34.79-2.66 34.15-5.74L34.15-5.74Q33.74-7.84 33.74-11.99L33.74-11.99 33.74-25.39 37.94-25.39 37.94-10.82Q37.94-7.18 38.64-5.62L38.64-5.62Q39.69-3.3 42.87-3.3L42.87-3.3Q45.11-3.3 47.26-5.44L47.26-5.44Q48.7-6.88 50.34-9.67L50.34-9.67 50.34-25.39 54.54-25.39 54.54-9.72Q54.54-6.47 54.71-4.08L54.71-4.08Q54.81-2.59 55.34-0.44ZM80.39-4.71L81.61-1.42Q78.9-0.34 76.52 0.12 74.14 0.59 72.26 0.59L72.26 0.59Q69.38 0.59 67.23-0.33 65.08-1.25 63.65-2.91 62.23-4.57 61.51-6.87 60.79-9.18 60.79-11.96L60.79-11.96Q60.79-13.67 61.03-15.38 61.27-17.09 61.81-18.64 62.35-20.19 63.22-21.53 64.08-22.88 65.33-23.85 66.57-24.83 68.23-25.39 69.89-25.95 72.02-25.95L72.02-25.95Q77.46-25.95 80.22-22.55 82.98-19.14 82.98-12.79L82.98-12.79 82.98-11.45 65.11-11.45Q65.11-9.4 65.55-7.82 65.99-6.25 66.9-5.16 67.82-4.08 69.22-3.52 70.62-2.95 72.55-2.95L72.55-2.95Q73.63-2.95 74.69-3.11 75.75-3.27 76.75-3.53 77.75-3.78 78.67-4.1 79.58-4.42 80.39-4.71L80.39-4.71ZM65.23-14.82L78.75-14.82Q78.56-18.77 76.86-20.59 75.17-22.41 72.02-22.41L72.02-22.41Q68.87-22.41 67.22-20.59 65.57-18.77 65.23-14.82L65.23-14.82ZM89.76-35.11L100.82-35.11Q103.31-35.11 105.5-34.73 107.68-34.35 109.32-33.4 110.95-32.45 111.91-30.81 112.86-29.17 112.86-26.64L112.86-26.64Q112.86-25.12 112.52-23.95 112.18-22.78 111.55-21.88 110.93-20.97 110.03-20.32 109.12-19.68 108.02-19.24L108.02-19.24 108.02-19.19Q109.37-18.85 110.6-18.14 111.83-17.43 112.76-16.33 113.69-15.23 114.24-13.73 114.79-12.23 114.79-10.33L114.79-10.33Q114.79-7.57 113.81-5.62 112.83-3.66 111.11-2.42 109.39-1.17 107.06-0.59 104.73 0 102.02 0L102.02 0 89.76 0 89.76-35.11ZM94.35-20.68L100.75-20.68Q102.51-20.68 103.9-20.97 105.29-21.26 106.25-21.96 107.22-22.66 107.74-23.82 108.27-24.98 108.27-26.68L108.27-26.68Q108.27-28.15 107.66-29.1 107.05-30.05 106-30.59L106-30.59Q104.95-31.13 103.58-31.34 102.21-31.54 100.75-31.54L100.75-31.54 94.35-31.54 94.35-20.68ZM94.35-3.56L102.02-3.56Q103.73-3.56 105.23-4 106.73-4.44 107.83-5.3 108.93-6.15 109.56-7.42 110.2-8.69 110.2-10.35L110.2-10.35Q110.2-12.01 109.56-13.27 108.93-14.53 107.83-15.38 106.73-16.24 105.23-16.67 103.73-17.11 102.02-17.11L102.02-17.11 94.35-17.11 94.35-3.56ZM130.63-25.95L130.63-25.95Q131.83-25.95 133.12-25.77 134.41-25.59 135.66-25.07L135.66-25.07Q136.9-24.54 138.01-23.62 139.13-22.71 139.98-21.24L139.98-21.24Q140.83-19.75 141.32-17.66 141.81-15.58 141.81-12.7L141.81-12.7Q141.81-9.81 141.32-7.73 140.83-5.64 139.98-4.17L139.98-4.17Q139.13-2.69 138.01-1.76 136.9-0.83 135.66-0.32L135.66-0.32Q134.41 0.22 133.12 0.4 131.83 0.59 130.63 0.59L130.63 0.59Q129.46 0.59 128.18 0.4 126.89 0.22 125.65-0.32L125.65-0.32Q124.4-0.83 123.31-1.76 122.21-2.69 121.35-4.17L121.35-4.17Q120.5-5.64 120.01-7.73 119.52-9.81 119.52-12.7L119.52-12.7Q119.52-15.58 120.01-17.66 120.5-19.75 121.35-21.24L121.35-21.24Q122.21-22.71 123.31-23.62 124.4-24.54 125.65-25.07L125.65-25.07Q126.89-25.59 128.16-25.77 129.43-25.95 130.63-25.95ZM130.63-22.51L130.63-22.51Q129.24-22.51 128.01-22.07 126.77-21.63 125.84-20.53L125.84-20.53Q124.89-19.41 124.33-17.53 123.77-15.65 123.77-12.7L123.77-12.7Q123.77-9.77 124.33-7.87 124.89-5.98 125.84-4.88L125.84-4.88Q126.77-3.76 128.01-3.33 129.24-2.91 130.63-2.91L130.63-2.91Q132.05-2.91 133.3-3.33 134.56-3.76 135.51-4.88L135.51-4.88Q136.46-5.98 137.01-7.87 137.56-9.77 137.56-12.7L137.56-12.7Q137.56-15.65 137.01-17.53 136.46-19.41 135.51-20.53L135.51-20.53Q134.56-21.63 133.3-22.07 132.05-22.51 130.63-22.51ZM157.8-25.95L157.8-25.95Q159-25.95 160.29-25.77 161.58-25.59 162.83-25.07L162.83-25.07Q164.07-24.54 165.19-23.62 166.3-22.71 167.15-21.24L167.15-21.24Q168.01-19.75 168.49-17.66 168.98-15.58 168.98-12.7L168.98-12.7Q168.98-9.81 168.49-7.73 168.01-5.64 167.15-4.17L167.15-4.17Q166.3-2.69 165.19-1.76 164.07-0.83 162.83-0.32L162.83-0.32Q161.58 0.22 160.29 0.4 159 0.59 157.8 0.59L157.8 0.59Q156.63 0.59 155.35 0.4 154.06 0.22 152.82-0.32L152.82-0.32Q151.57-0.83 150.48-1.76 149.38-2.69 148.52-4.17L148.52-4.17Q147.67-5.64 147.18-7.73 146.69-9.81 146.69-12.7L146.69-12.7Q146.69-15.58 147.18-17.66 147.67-19.75 148.52-21.24L148.52-21.24Q149.38-22.71 150.48-23.62 151.57-24.54 152.82-25.07L152.82-25.07Q154.06-25.59 155.33-25.77 156.6-25.95 157.8-25.95ZM157.8-22.51L157.8-22.51Q156.41-22.51 155.18-22.07 153.94-21.63 153.01-20.53L153.01-20.53Q152.06-19.41 151.5-17.53 150.94-15.65 150.94-12.7L150.94-12.7Q150.94-9.77 151.5-7.87 152.06-5.98 153.01-4.88L153.01-4.88Q153.94-3.76 155.18-3.33 156.41-2.91 157.8-2.91L157.8-2.91Q159.22-2.91 160.47-3.33 161.73-3.76 162.68-4.88L162.68-4.88Q163.63-5.98 164.18-7.87 164.73-9.77 164.73-12.7L164.73-12.7Q164.73-15.65 164.18-17.53 163.63-19.41 162.68-20.53L162.68-20.53Q161.73-21.63 160.47-22.07 159.22-22.51 157.8-22.51ZM175.55 0L175.55-35.16 179.75-35.16 179.75-14.01 191.17-25.95 193.93-23.27 184.04-13.09 196.52 0 191.29 0 179.75-12.21 179.75 0 175.55 0Z" opacity="1" transform="matrix(1,0,0,1,0,0)" fill="#e6d7ff" class="slogan-text-1" data-fill-palette-color="secondary" id="text-1"></path></svg></g></svg></g></svg></g></svg></g><g transform="matrix(1,0,0,1,443.6215584120777,0)"><svg viewBox="0 0 224.06547569628827 206.14023764058518" height="206.14023764058518" width="224.06547569628827"><g><svg xmlns="http://www.w3.org/2000/svg" xmlns:xlink="http://www.w3.org/1999/xlink" version="1.1" x="0" y="0" viewBox="0 0.8 20 18.4" style="enable-background:new 0 0 20 20;" xml:space="preserve" height="206.14023764058518" width="224.06547569628827" class="icon-icon-0" data-fill-palette-color="accent" id="icon-0"><path d="M16.8 11.3C17.6 8.9 16 6.6 13.8 6.1 14.7 3.4 12.7 0.8 10 0.8 7.4 0.8 5.3 3.4 6.2 6.1 4 6.5 2.4 8.8 3.2 11.3 1.4 11.7 0 13.3 0 15.2 0 17.4 1.8 19.2 4 19.2 5.2 19.2 6.3 18.7 7 17.8 7.7 18.6 8.8 19.2 10 19.2S12.3 18.7 13 17.8C13.7 18.6 14.8 19.2 16 19.2 18.2 19.2 20 17.4 20 15.2 20 13.2 18.6 11.6 16.8 11.3M15 10C15 11.1 14.1 12 13 12S11 11.1 11 10 11.9 8 13 8 15 8.9 15 10M10 2.8C11.1 2.8 12 3.7 12 4.8S11.1 6.8 10 6.8 8 5.9 8 4.8 8.9 2.8 10 2.8M7 8C8.1 8 9 8.9 9 10S8.1 12 7 12 5 11.1 5 10 5.9 8 7 8M4 17.2C2.9 17.2 2 16.3 2 15.2S2.9 13.2 4 13.2 6 14.1 6 15.2 5.1 17.2 4 17.2M10 17.2C8.9 17.2 8 16.3 8 15.2S8.9 13.2 10 13.2 12 14.1 12 15.2 11.1 17.2 10 17.2M16 17.2C14.9 17.2 14 16.3 14 15.2S14.9 13.2 16 13.2 18 14.1 18 15.2 17.1 17.2 16 17.2" fill="#8f6449" data-fill-palette-color="accent"></path></svg></g></svg></g></svg></g><defs></defs></svg><rect width="395.52" height="122.11198155208069" fill="none" stroke="none" visibility="hidden"></rect></g></svg></g></svg>